<?xml version="1.0" encoding="utf-8"?>
<!-- Generator: Adobe Illustrator 19.2.1, SVG Export Plug-In . SVG Version: 6.00 Build 0)  -->
<svg version="1.1" id="Layer_1" xmlns="http://www.w3.org/2000/svg" xmlns:xlink="http://www.w3.org/1999/xlink" x="0px" y="0px"
	 viewBox="0 0 200.411 100.572" enable-background="new 0 0 200.411 100.572" xml:space="preserve">
<g>
	<path fill-rule="evenodd" clip-rule="evenodd" fill="#666666" d="M199.66,54.271v1.016c-0.251-0.052-0.451-0.079-0.599-0.079
		c-0.709,0-1.269,0.25-1.68,0.747c-0.412,0.498-0.617,1.197-0.617,2.098v4.195h-1.079v-7.913h0.993v1.668
		c0.447-1.186,1.257-1.779,2.434-1.779C199.262,54.223,199.444,54.239,199.66,54.271L199.66,54.271z M192.824,57.894v0.571h-6.031
		c0.069,2.076,1.096,3.114,3.084,3.114c0.765,0,1.531-0.19,2.296-0.571v0.985c-0.742,0.297-1.541,0.444-2.399,0.444
		c-1.255,0-2.241-0.37-2.955-1.112c-0.714-0.741-1.071-1.768-1.071-3.082c0-1.24,0.346-2.232,1.036-2.98
		c0.692-0.746,1.597-1.119,2.716-1.119c1.005,0,1.811,0.334,2.416,1.001C192.522,55.812,192.824,56.729,192.824,57.894
		L192.824,57.894z M191.78,57.735c-0.126-1.832-0.932-2.749-2.417-2.749c-0.688,0-1.271,0.244-1.742,0.731
		c-0.471,0.488-0.748,1.16-0.828,2.018H191.78L191.78,57.735z M182.647,57.416v4.831h-1.079v-4.592c0-1.727-0.687-2.59-2.057-2.59
		c-0.777,0-1.391,0.268-1.842,0.802c-0.451,0.536-0.677,1.29-0.677,2.264v4.116h-1.079v-7.913h0.993v1.493
		c0.617-1.111,1.588-1.668,2.913-1.668C181.705,54.16,182.647,55.245,182.647,57.416L182.647,57.416z M170.93,51.983v2.351h1.987
		v0.81h-1.987v4.624c0,0.615,0.086,1.053,0.257,1.319c0.171,0.264,0.491,0.396,0.96,0.396c0.285,0,0.576-0.058,0.874-0.174v0.906
		c-0.355,0.095-0.72,0.143-1.098,0.143c-0.776,0-1.317-0.188-1.619-0.564c-0.303-0.376-0.454-0.993-0.454-1.851v-4.798h-1.748v-0.81
		h1.748v-2.002L170.93,51.983L170.93,51.983z M166.507,54.271v1.016c-0.251-0.052-0.451-0.079-0.599-0.079
		c-0.708,0-1.268,0.25-1.68,0.747c-0.411,0.498-0.617,1.197-0.617,2.098v4.195h-1.079v-7.913h0.994v1.668
		c0.446-1.186,1.257-1.779,2.433-1.779C166.108,54.223,166.291,54.239,166.507,54.271L166.507,54.271z M156.482,58.228
		c-2.087,0-3.13,0.598-3.13,1.795c0,0.444,0.157,0.81,0.474,1.097c0.315,0.286,0.731,0.428,1.246,0.428
		c0.791,0,1.425-0.23,1.902-0.691c0.477-0.461,0.714-1.094,0.714-1.899v-0.73H156.482L156.482,58.228z M158.733,57.194v5.053h-0.96
		V60.88c-0.639,0.985-1.587,1.478-2.844,1.478c-0.823,0-1.48-0.209-1.971-0.628c-0.491-0.419-0.736-0.967-0.736-1.644
		c0-0.837,0.377-1.491,1.131-1.963c0.753-0.471,1.828-0.707,3.221-0.707h1.096c0-0.031,0.006-0.08,0.018-0.143
		c0-0.052,0-0.095,0-0.126c0-0.667-0.18-1.184-0.541-1.55c-0.359-0.365-0.848-0.547-1.464-0.547c-0.857,0-1.674,0.222-2.451,0.667
		v-0.969c0.868-0.392,1.725-0.588,2.57-0.588C157.756,54.16,158.733,55.171,158.733,57.194L158.733,57.194z M143.48,60.896v4.672
		H142.4V54.334h0.994v1.557c0.662-1.155,1.644-1.732,2.947-1.732c1.027,0,1.856,0.36,2.485,1.081c0.628,0.72,0.942,1.7,0.942,2.94
		c0,1.281-0.322,2.296-0.968,3.042c-0.645,0.746-1.505,1.121-2.579,1.121C145.01,62.342,144.096,61.86,143.48,60.896L143.48,60.896z
		 M148.603,58.243c0-1.017-0.221-1.809-0.659-2.376c-0.44-0.567-1.043-0.85-1.809-0.85c-0.776,0-1.41,0.281-1.901,0.842
		c-0.502,0.593-0.754,1.383-0.754,2.368c0,1.048,0.234,1.861,0.703,2.438c0.468,0.577,1.113,0.866,1.936,0.866
		c0.731,0,1.329-0.294,1.791-0.882C148.372,60.062,148.603,59.26,148.603,58.243L148.603,58.243z M199.27,44.862v4.831h-1.001
		v-4.592c0-1.726-0.636-2.59-1.907-2.59c-0.721,0-1.29,0.268-1.708,0.803c-0.419,0.534-0.628,1.289-0.628,2.263v4.115h-1V41.78
		h0.921v1.494c0.572-1.113,1.473-1.669,2.701-1.669C198.397,41.605,199.27,42.691,199.27,44.862L199.27,44.862z M186.425,42.447
		c-0.773,0-1.4,0.299-1.883,0.898c-0.482,0.599-0.722,1.39-0.722,2.376c0,0.985,0.241,1.777,0.722,2.375
		c0.483,0.598,1.11,0.898,1.883,0.898c0.785,0,1.417-0.296,1.899-0.89c0.482-0.593,0.724-1.388,0.724-2.384
		c0-1.006-0.242-1.803-0.724-2.392C187.841,42.742,187.209,42.447,186.425,42.447L186.425,42.447z M186.425,41.605
		c1.124,0,2.016,0.371,2.677,1.112c0.662,0.742,0.993,1.748,0.993,3.019c0,1.271-0.333,2.28-1.001,3.027
		c-0.667,0.747-1.557,1.121-2.669,1.121c-1.112,0-2.002-0.374-2.669-1.121c-0.667-0.747-1.001-1.755-1.001-3.027
		c0-1.271,0.333-2.277,1.001-3.019C184.423,41.976,185.313,41.605,186.425,41.605L186.425,41.605z M178.921,41.78h1v7.912h-1V41.78
		L178.921,41.78z M178.842,38.078h1.143v1.287h-1.143V38.078L178.842,38.078z M174.512,39.429v2.351h1.844v0.81h-1.844v4.624
		c0,0.614,0.079,1.054,0.239,1.319c0.158,0.264,0.456,0.397,0.89,0.397c0.265,0,0.535-0.058,0.81-0.174v0.905
		c-0.328,0.095-0.667,0.143-1.017,0.143c-0.72,0-1.221-0.188-1.501-0.563c-0.281-0.376-0.422-0.994-0.422-1.852v-4.798h-1.621v-0.81
		h1.621v-2.002L174.512,39.429L174.512,39.429z M163.097,41.78h0.985v4.528c0,1.727,0.635,2.59,1.906,2.59
		c1.557,0,2.336-1.117,2.336-3.353V41.78h1.001v7.912h-0.922v-1.557c-0.572,1.112-1.472,1.668-2.701,1.668
		c-1.737,0-2.606-1.086-2.606-3.257V41.78L163.097,41.78z M158.797,37.856h1.001v11.836h-1.001V37.856L158.797,37.856z
		 M152.292,42.447c-0.773,0-1.4,0.299-1.883,0.898c-0.482,0.599-0.723,1.39-0.723,2.376c0,0.985,0.241,1.777,0.723,2.375
		c0.482,0.598,1.11,0.898,1.883,0.898c0.784,0,1.417-0.296,1.898-0.89c0.483-0.593,0.724-1.388,0.724-2.384
		c0-1.006-0.241-1.803-0.724-2.392C153.709,42.742,153.075,42.447,152.292,42.447L152.292,42.447z M152.292,41.605
		c1.123,0,2.015,0.371,2.677,1.112c0.662,0.742,0.993,1.748,0.993,3.019c0,1.271-0.334,2.28-1.001,3.027
		c-0.667,0.747-1.557,1.121-2.669,1.121c-1.112,0-2.002-0.374-2.669-1.121c-0.667-0.747-1-1.755-1-3.027
		c0-1.271,0.333-2.277,1-3.019C150.29,41.976,151.18,41.605,152.292,41.605L152.292,41.605z M146.183,41.956v0.937
		c-0.593-0.265-1.207-0.398-1.843-0.398c-0.508,0-0.91,0.108-1.208,0.326c-0.296,0.217-0.444,0.49-0.444,0.818
		c0,0.339,0.164,0.625,0.493,0.858c0.158,0.117,0.582,0.339,1.271,0.666c0.752,0.351,1.282,0.689,1.59,1.017
		c0.349,0.361,0.524,0.806,0.524,1.335c0,0.689-0.259,1.24-0.778,1.653c-0.518,0.413-1.218,0.618-2.098,0.618
		c-0.783,0-1.477-0.126-2.081-0.381v-0.938c0.667,0.328,1.341,0.493,2.018,0.493c0.572,0,1.03-0.13,1.375-0.389
		c0.345-0.26,0.517-0.585,0.517-0.977c0-0.403-0.159-0.737-0.477-1.002c-0.202-0.18-0.651-0.434-1.351-0.763
		c-0.73-0.35-1.233-0.662-1.509-0.937c-0.349-0.339-0.523-0.757-0.523-1.255c0-0.562,0.235-1.028,0.706-1.399
		c0.471-0.371,1.094-0.556,1.867-0.556C144.939,41.685,145.59,41.776,146.183,41.956L146.183,41.956z"/>
	<path fill-rule="evenodd" clip-rule="evenodd" fill="#264796" d="M0,36.745h120.964l0.155,0.351l0.181,0.327l0.209,0.276
		l0.233,0.252l0.234,0.226l0.311,0.226l0.338,0.201l0.415,0.226l-1.765,6.085l-1.142,0.025l-1.038,0.176l-0.935,0.352l-0.83,0.503
		l-0.701,0.602l-0.571,0.705l-0.467,0.779l-0.312,0.83l-0.182,0.88l-0.052,0.905l0.13,0.906l0.286,0.879l0.441,0.83l0.623,0.78
		l0.779,0.703l0.986,0.603l-1.714,5.96l-0.519,0.024l-0.467,0.051l-0.467,0.101l-0.415,0.126l-0.415,0.177l-0.363,0.2l-0.338,0.228
		l-0.311,0.276l-0.286,0.276l-0.259,0.327l-0.235,0.352l-0.208,0.352l-0.156,0.377l-0.129,0.403l-0.105,0.427l-0.077,0.428H0V36.745
		L0,36.745z M134.57,65.441h-13.005l-0.13-0.629l-0.207-0.579l-0.233-0.527l-0.312-0.454l-0.337-0.402l-0.363-0.352l-0.39-0.302
		l-0.415-0.252l1.791-5.984l1.116-0.025l0.986-0.201l0.908-0.353l0.779-0.503l0.649-0.628l0.546-0.704l0.415-0.804l0.285-0.83
		l0.156-0.88l0.026-0.904l-0.104-0.881l-0.259-0.88l-0.391-0.805l-0.544-0.729l-0.702-0.654l-0.857-0.552l1.817-6.11l0.39-0.075
		l0.363-0.075l0.337-0.101l0.312-0.075l0.286-0.101l0.285-0.1l0.259-0.126l0.234-0.15l0.233-0.152l0.207-0.175l0.234-0.202
		l0.208-0.226l0.207-0.251l0.207-0.301l0.209-0.327l0.207-0.352h4.594V65.441L134.57,65.441z"/>
	<path fill-rule="evenodd" clip-rule="evenodd" fill="#FEFEFE" d="M49.449,55.413l-1.608,3.746l-1.039,0.15l-1.038,0.126
		l-0.987,0.125l-0.986,0.076l-0.936,0.05l-0.906,0.026h-0.91l-0.831-0.026l-0.831-0.05L38.6,59.561l-0.727-0.101l-0.701-0.126
		l-0.649-0.151l-0.597-0.176l-0.545-0.201l-0.493-0.226l-0.908-0.503L33.2,57.574l-0.701-0.503l-0.622-0.528l-0.52-0.503
		l-0.441-0.528l-0.389-0.503l-0.286-0.527l-0.26-0.529l-0.208-0.503l-0.13-0.503l-0.102-0.528l-0.079-0.502L29.41,51.44
		l-0.025-0.503v-0.478l0.025-0.628l0.078-0.604l0.155-0.578l0.183-0.554l0.233-0.553l0.287-0.503l0.337-0.503l0.364-0.478
		l0.415-0.452l0.44-0.403l0.468-0.402l0.493-0.352l0.519-0.352l0.571-0.302l0.545-0.276l0.597-0.251l0.493-0.176l0.493-0.151
		l0.519-0.151l0.52-0.101l0.545-0.1l0.57-0.075l0.623-0.076l0.623-0.05l0.674-0.025h0.726h0.78l0.831,0.025l0.882,0.05l0.934,0.05
		l1.013,0.075l1.09,0.075l0.208,3.646l-0.311-0.176l-0.312-0.177l-0.337-0.151l-0.337-0.15l-0.338-0.126l-0.337-0.101l-0.365-0.101
		l-0.337-0.1l-0.389-0.075l-0.363-0.075l-0.389-0.051l-0.416-0.025L42,44.928l-0.416-0.025h-0.442h-0.441l-0.831,0.075l-0.752,0.176
		l-0.65,0.251l-0.545,0.303l-0.467,0.375l-0.416,0.402l-0.31,0.454l-0.26,0.452l-0.234,0.477l-0.156,0.478l-0.103,0.453L35.9,49.228
		l-0.052,0.402l-0.026,0.377l-0.025,0.302v0.225v0.227v0.277l0.025,0.302l0.026,0.327l0.052,0.352l0.079,0.377l0.103,0.377
		l0.156,0.402l0.182,0.403l0.208,0.427l0.259,0.402l0.338,0.402l0.363,0.377l0.441,0.377l0.519,0.352l0.572,0.327l0.519,0.226
		l0.545,0.176l0.571,0.151l0.598,0.076l0.622,0.075h0.676l0.649-0.025l0.675-0.05l0.701-0.101l0.7-0.126l0.702-0.151l0.675-0.176
		l0.701-0.201l0.674-0.202l0.675-0.251L49.449,55.413L49.449,55.413z M104.195,55.538l-1.584,3.746l-1.037,0.151l-1.039,0.151
		l-1.013,0.1l-0.96,0.076l-0.961,0.049l-0.908,0.026h-0.908l-0.857-0.051l-0.804-0.049l-0.778-0.076l-0.727-0.1l-0.701-0.125
		l-0.649-0.151l-0.571-0.175l-0.546-0.177l-0.492-0.225l-0.961-0.504l-0.83-0.503l-0.727-0.528l-0.623-0.503l-0.545-0.528
		l-0.442-0.503l-0.363-0.528l-0.312-0.528l-0.233-0.503l-0.181-0.528l-0.13-0.503l-0.078-0.504l-0.051-0.502l-0.027-0.502
		l-0.027-0.503V50.56l0.027-0.628l0.078-0.578l0.155-0.604l0.182-0.554l0.26-0.528l0.286-0.528l0.312-0.503l0.389-0.453l0.389-0.452
		l0.442-0.429l0.494-0.376l0.493-0.377l0.52-0.327l0.544-0.302l0.571-0.277l0.597-0.252l0.493-0.176l0.493-0.151l0.519-0.125
		l0.519-0.126l0.546-0.101l0.571-0.075l0.623-0.075l0.623-0.025l0.675-0.025l0.727-0.026l0.779,0.026h0.83l0.883,0.05l0.935,0.05
		l1.012,0.075l1.09,0.075l0.183,3.646l-0.312-0.176l-0.311-0.177l-0.337-0.15l-0.338-0.126l-0.339-0.125l-0.336-0.101l-0.364-0.1
		l-0.337-0.101l-0.39-0.075l-0.363-0.076l-0.39-0.049l-0.388-0.026l-0.416-0.05l-0.416-0.024h-0.415h-0.441l-0.832,0.075
		l-0.752,0.175l-0.649,0.252l-0.546,0.302l-0.467,0.377l-0.415,0.403l-0.311,0.428l-0.26,0.477l-0.233,0.452l-0.156,0.477
		l-0.104,0.454l-0.077,0.452l-0.052,0.403l-0.027,0.352l-0.026,0.302v0.225v0.226v0.277l0.026,0.301l0.027,0.327l0.052,0.352
		l0.077,0.377l0.104,0.378l0.156,0.401l0.155,0.403l0.234,0.427l0.26,0.401l0.311,0.403l0.389,0.377l0.441,0.378l0.494,0.377
		l0.571,0.327l0.519,0.226l0.545,0.176l0.571,0.151l0.623,0.076l0.624,0.05l0.648,0.026l0.675-0.026l0.676-0.075l0.674-0.075
		l0.7-0.126l0.701-0.151l0.675-0.176l0.701-0.201l0.675-0.226l0.675-0.252L104.195,55.538L104.195,55.538z M66.011,50.208
		l-0.182-0.175l-0.182-0.177l-0.155-0.201l-0.105-0.176l-0.129-0.176l-0.052-0.151l-0.052-0.177l-0.026-0.15l0.052-0.302
		l0.155-0.177l0.234-0.075l0.26-0.025l0.259,0.051l0.234,0.1l0.182,0.101l0.104,0.152l0.103,0.277l0.026,0.226l-0.026,0.202
		l-0.078,0.176l-0.13,0.15l-0.129,0.176l-0.182,0.177L66.011,50.208L66.011,50.208z M68.113,56.745l-3.114-3.067l-0.468,0.629
		l-0.233,0.628l-0.053,0.578l0.104,0.554l0.233,0.452l0.286,0.402l0.311,0.302l0.312,0.176l0.311,0.1l0.312,0.076l0.338,0.025
		l0.311-0.05l0.337-0.1l0.338-0.151l0.338-0.252L68.113,56.745L68.113,56.745z M64.583,59.712l-0.493-0.051l-0.467-0.1l-0.467-0.151
		l-0.441-0.2l-0.416-0.227l-0.363-0.276l-0.337-0.327l-0.311-0.327l-0.26-0.377l-0.208-0.377l-0.13-0.403l-0.104-0.427l-0.026-0.427
		l0.026-0.452l0.13-0.428l0.182-0.453l0.337-0.527l0.389-0.529l0.441-0.454l0.415-0.401l0.39-0.327l0.312-0.226l0.181-0.1h0.052
		l-0.286-0.302L62.87,51.49l-0.26-0.352l-0.207-0.352l-0.182-0.302l-0.13-0.252l-0.103-0.176l-0.027-0.05l-0.103-0.503l-0.026-0.453
		l0.052-0.401l0.129-0.378l0.156-0.327l0.234-0.302l0.258-0.251l0.286-0.227l0.312-0.2l0.338-0.151l0.338-0.152l0.336-0.1
		l0.338-0.076l0.311-0.05l0.285-0.049h0.261l0.674,0.024l0.571,0.051l0.52,0.1l0.467,0.151l0.389,0.151l0.337,0.202l0.286,0.201
		l0.233,0.226l0.182,0.251l0.13,0.251l0.104,0.276l0.052,0.277l0.026,0.277v0.251l-0.051,0.277l-0.052,0.251l-0.208,0.578
		l-0.259,0.477l-0.286,0.378l-0.259,0.275l-0.26,0.228l-0.181,0.15l-0.104,0.101v0.076l0.025,0.025l0.079,0.075l0.103,0.126
		l0.156,0.151l0.208,0.175l0.207,0.227l0.259,0.252l0.311,0.276l0.312,0.302l0.337,0.327l0.364,0.327l0.363,0.326l0.389,0.328
		l0.39,0.351l0.416,0.327l0.415,0.326l0.207,0.152l0.207,0.176l0.234,0.175l0.26,0.202l0.259,0.227l0.285,0.201l0.312,0.226
		l0.337,0.251l0.337,0.226l0.363,0.252l0.364,0.225l0.388,0.253l0.39,0.225l0.416,0.226l0.441,0.227l0.441,0.226h-0.025
		l-0.077,0.025h-0.13l-0.181,0.025l-0.234,0.025l-0.261,0.025l-0.311,0.025l-0.311,0.025l-0.338,0.026l-0.338,0.024l-0.363,0.025
		l-0.337,0.026l-0.337,0.025l-0.312,0.025h-0.312h-0.259l-0.753-0.05l-0.701-0.177l-0.624-0.201l-0.545-0.277l-0.441-0.252
		l-0.338-0.2l-0.208-0.176l-0.077-0.051l-0.13,0.1l-0.13,0.102l-0.129,0.125l-0.156,0.126l-0.156,0.151l-0.182,0.126l-0.208,0.151
		l-0.233,0.125l-0.259,0.126l-0.312,0.126l-0.364,0.1l-0.415,0.076L66.4,59.687l-0.545,0.026l-0.597,0.026L64.583,59.712
		L64.583,59.712z"/>
	<path fill-rule="evenodd" clip-rule="evenodd" fill="#666666" d="M134.746,6.118c1.534-0.001,2.784-1.18,2.784-2.626
		c0-1.446-1.251-2.626-2.786-2.626c-1.534,0-2.786,1.18-2.786,2.626c0,1.042,0.649,1.945,1.587,2.369l-2.793,9.708
		c-0.24-0.046-0.488-0.071-0.742-0.071c-2.036,0-3.698,1.566-3.698,3.486c0,1.528,1.052,2.831,2.508,3.3l-2.496,8.679
		c-0.231-0.039-0.469-0.06-0.712-0.06c-2.234,0-4.055,1.717-4.055,3.823c0,1.641,1.107,3.046,2.653,3.586l-2.115,7.353
		c-0.281-0.046-0.571-0.07-0.867-0.07c-2.812,0-5.107,2.162-5.107,4.813c0,2.057,1.381,3.819,3.313,4.506l-2.045,7.106
		c-0.151-0.016-0.304-0.024-0.46-0.024c-2.272,0-4.125,1.746-4.125,3.887c0,1.58,1.01,2.945,2.452,3.552l-2.554,8.879
		c-0.097-0.007-0.194-0.011-0.292-0.011c-2.021,0-3.669,1.553-3.669,3.458c0,1.366,0.848,2.551,2.074,3.112l-2.762,9.603
		c-0.043-0.001-0.085-0.003-0.128-0.003c-1.542,0-2.799,1.185-2.799,2.638c0,1.454,1.258,2.639,2.799,2.639
		c1.542,0,2.8-1.185,2.8-2.639c0-1.05-0.656-1.96-1.601-2.384l2.76-9.546c0.172,0.023,0.347,0.035,0.526,0.035
		c2.02,0,3.668-1.553,3.668-3.457c0-1.441-0.944-2.682-2.28-3.199l2.554-8.83c0.188,0.025,0.381,0.039,0.577,0.039
		c2.272,0,4.125-1.747,4.125-3.888c0-1.616-1.056-3.007-2.551-3.592l2.057-7.11c0.219,0.027,0.441,0.041,0.668,0.041
		c2.813,0,5.107-2.162,5.107-4.813c0-1.985-1.287-3.696-3.114-4.43l2.15-7.436c0.08,0.005,0.16,0.007,0.241,0.007
		c2.234,0,4.056-1.717,4.056-3.822c0-1.479-0.899-2.767-2.21-3.402l2.561-8.855c2.033-0.003,3.691-1.568,3.691-3.485
		c0-1.272-0.731-2.39-1.816-2.998L134.746,6.118L134.746,6.118z M135.548,1.297c1.576,2.109-0.215,4.065-2.444,3.771
		C131.628,3.631,132.804,0.79,135.548,1.297L135.548,1.297z M130.908,16.091c2.28,2.703-0.717,5.898-3.291,4.913
		C125.646,19.151,127.437,15.111,130.908,16.091L130.908,16.091z M126.596,31.553c2.501,2.964-0.786,6.468-3.609,5.388
		C120.826,34.909,122.79,30.478,126.596,31.553L126.596,31.553z M122.467,46.413c3.149,3.733-0.991,8.145-4.544,6.784
		C115.202,50.639,117.674,45.059,122.467,46.413L122.467,46.413z M117.929,62.656c2.543,3.015-0.8,6.578-3.67,5.479
		C112.062,66.069,114.059,61.563,117.929,62.656L117.929,62.656z M113.299,78.891c2.262,2.682-0.711,5.85-3.264,4.873
		C108.08,81.926,109.857,77.919,113.299,78.891L113.299,78.891z M108.732,94.906c1.584,2.119-0.216,4.085-2.456,3.789
		C104.793,97.252,105.974,94.397,108.732,94.906L108.732,94.906z"/>
	<path fill-rule="evenodd" clip-rule="evenodd" d="M134.612,56.611c1.605,6.088,1.943,14.411-0.017,20.499
		c-0.294,0.917-0.662,1.799-1.131,2.64c-0.189,0.35-0.383,0.697-0.595,1.036c-1.27,2.041-7.07,4.036-9.359,4.486
		c-1.905,0.373-8.946,1.689-10.366,0.369c-1.206-1.119-2.176-2.69-2.982-4.115c-0.18-0.326-0.373-0.685-0.681-0.92
		c-0.638-0.507-1.586-1.005-2.088-1.655c-0.321-0.416-0.662-0.804-1.022-1.191c-2.122-2.333-2.661-3.568-3.798-6.527
		c-0.569-1.481-1.115-2.946-2.21-4.13c-0.732-0.803-1.192-1.394,0.078-1.897c0.684-0.268,0.625-0.184,0.351-0.861
		c-0.116-0.295-0.22-0.67-0.129-0.966h7.987c0.111,0.106,0.169,0.247,0.129,0.436c-0.114,0.573-0.555,0.974-0.789,1.464
		c-0.051,0.105,0.287,0.146,0.555,0.184c1.395,0.206,1.981,0.838,1.488,2.263c-0.451,1.309,0.166,2.337,0.65,3.569
		c0.285,0.718,1.418,3.324,2.168,3.622c0.147,0.054,0.693-0.635,0.768-0.729c1.579-1.903,3.502-3.518,5.526-4.921
		c1.162-0.81,0.571-0.759-0.375-1.531c-3.565-2.898-4.822-3.505-7.588-7.28c-2.781-3.804-4.416-10.57-1.635-14.781
		c0.064-0.096,1.126-1.453,0.452-1.228c-1.148,0.385-2.455,0.297-2.946-0.998c-0.135-0.366-0.325-0.651-0.562-0.965
		c-0.577-0.78-2.385-4.966-4.248-5.692h-4.11l0.043-0.093c0.282-0.557,0.831-1.306,1.469-1.456
		c1.947-0.46,10.717-0.913,12.599-0.737c3.586,0.343,4.659,2.595,6.452,5.31c1.199,1.81,1.031,0.78,2.686,1.371
		c0.304,0.109,0.632,0.256,0.73,0.576c0.164,0.521,0.885,0.518,1.338,0.596c2.847,0.49,4.736,1.822,6.217,3.867
		C131.752,49.098,133.522,52.303,134.612,56.611L134.612,56.611z M106.522,58.126v-0.078l0.059,0.078H106.522L106.522,58.126z"/>
	<path fill-rule="evenodd" clip-rule="evenodd" fill="#FEFEFE" d="M124.841,44.655c-0.892-0.207-1.244-0.455-0.836,0.478
		c0.229,0.507,0.433,1.089-0.368,1.014c-2.252-0.23-4.527-0.164-6.76,0.296c-0.515,0.106-1.463,0.486-1.354-0.373
		c0.154-1.149-0.642,1.048-0.638,1.441c0.007,0.385-0.106,0.367-0.451,0.57c-2.997,1.812-2.953,6.577-2.202,9.558
		c0.652,2.589,1.542,4.058,3.33,6.02c2.454,2.699,3.711,4.078,6.961,5.766c0.585,0.304,1.107,0.401,1.025,1.145
		c-0.09,0.912-1.007,1.637-1.731,2.087c-3.667,2.285-8.866,6.007-8.664,10.907c0.08,1.943,0.613,2.186,2.487,2.198
		c0.702,0.003,1.967,0.259,0.722-0.499c-0.476-0.292-0.706-0.404-0.876-0.954c-0.476-1.527,1.546-5.275,2.673-6.308
		c1.969-1.805,4.306-3.495,6.518-4.985c0.871-0.582,0.835-0.573,0.944-1.628c0.143-1.27,0.519-2.667-0.73-3.437
		c-3.12-1.939-5.757-4.236-8.041-7.126c-1.31-1.661-2.488-6.869-2.265-8.971c0.355-3.239,2.032-3.338,4.831-3.853
		c0.961-0.177,3.962-0.113,4.881,0.154c1.21,0.352,2.997,1.184,3.881,2.091c3.07,3.18,4.311,7.489,4.692,11.813
		c0.199,2.304,0,4.045-0.92,6.169c-0.212,0.499-0.562,0.902-0.172,1.362c1.267,1.491,1.311,5.691,1.004,7.544
		c-0.043,0.294-0.099,0.597-0.113,0.901c-0.02,0.697-1.32,3.079-1.807,3.635c-0.134,0.162-0.213,0.243-0.35,0.401
		c-0.164,0.194-0.203,0.276-0.106,0.238c0.098-0.047,0.152-0.088,0.239-0.152c2.553-1.666,3.616-4.733,4.143-7.745
		c0.851-4.902,0.88-9.386,0.074-14.283c-0.702-4.285-2.127-8.796-5.124-12.896C128.961,46.166,125.818,44.876,124.841,44.655
		L124.841,44.655z"/>
	<path fill-rule="evenodd" clip-rule="evenodd" fill="#FEFEFE" d="M122.281,43.4c-0.16,0.187-0.727,1.05-0.04,0.933
		C123.361,44.139,122.495,43.156,122.281,43.4L122.281,43.4z"/>
	<path fill-rule="evenodd" clip-rule="evenodd" fill="#FEFEFE" d="M121.362,43.242c-0.592,1.06-0.595,1.118-0.25,1.094
		c0.183,0.006,0.339-0.216,0.607-0.858C122.216,42.3,121.956,42.121,121.362,43.242L121.362,43.242z"/>
	<path fill-rule="evenodd" clip-rule="evenodd" fill="#FEFEFE" d="M121.072,41.71c-0.425-0.069-0.921,1.216-1.104,1.554
		c-0.185,0.343-0.816,1.04-0.114,1.041c0.607,0.005,0.791-0.66,1.026-1.125C121.037,42.868,121.762,41.829,121.072,41.71
		L121.072,41.71z"/>
	<path fill-rule="evenodd" clip-rule="evenodd" fill="#FEFEFE" d="M119.658,41.471c-0.654-0.022-0.579-0.1-1.419,1.654
		c-0.772,1.559-0.772,1.559-0.134,1.394c0.797-0.17,0.797-0.17,1.55-1.65C120.307,41.544,120.306,41.489,119.658,41.471
		L119.658,41.471z"/>
	<path fill-rule="evenodd" clip-rule="evenodd" fill="#FEFEFE" d="M118.026,41.502c-0.638-0.046-0.73,0.07-1.642,2.109
		c-0.878,2.011-0.878,2.011-0.253,1.665c0.333-0.183,0.69-0.45,0.785-0.623c0.561-0.997,1.522-2.985,1.495-3.055
		C118.393,41.552,118.221,41.513,118.026,41.502L118.026,41.502z"/>
	<path fill-rule="evenodd" clip-rule="evenodd" fill="#FEFEFE" d="M116.027,41.709c-0.455,0.14-1.684,3.613-1.478,4.149
		c0.162,0.423,0.162,0.423,1.213-1.899C116.823,41.535,116.834,41.421,116.027,41.709L116.027,41.709z"/>
	<path fill-rule="evenodd" clip-rule="evenodd" fill="#FEFEFE" d="M107.504,42.172c0.164,0.058,4.039-0.673,4.542-0.715
		c0.371,0.176,2.584-1.93,2.789-2.367c0.523-1.068,0.068-3.107-1.108-3.594c-1.785-0.732-7.141-0.34-9.248-0.217
		c-0.543,0.027-1.093,0.056-1.636,0.098c-0.058,0.007-0.592,0.036-0.598,0.109c0.002,0.045,0.213,0.135,0.245,0.152
		C104.617,36.74,106.55,40.068,107.504,42.172L107.504,42.172z"/>
	<path fill-rule="evenodd" clip-rule="evenodd" fill="#FEFEFE" d="M114.963,41.815c-0.4,0.154-1.174,2.066-1.02,2.466
		c0.167,0.43,0.299,0.424,0.434-0.001C114.514,43.865,115.587,41.575,114.963,41.815L114.963,41.815z"/>
	<path fill-rule="evenodd" clip-rule="evenodd" fill="#FEFEFE" d="M112.985,42.419c-0.422,0.238-0.4,0.204,0.031,0.629
		c0.462,0.443,0.511,0.424,0.88-0.363C114.225,41.993,113.853,41.864,112.985,42.419L112.985,42.419z"/>
	<path fill-rule="evenodd" clip-rule="evenodd" fill="#FEFEFE" d="M130.587,66.569c-0.427,0.139-0.476,0.234-2.131,4.213
		c-2.397,5.748-4.833,11.268-5.022,11.34c-0.307,0.119-0.196-0.172,0.979-2.913c2.241-5.198,4.995-11.778,5.106-12.199
		c0.056-0.264,0.024-0.281-0.209-0.193c-0.217,0.084-0.401,0.427-0.655,1.252c-0.766,2.29-1.208,3.161-1.389,2.686
		c-0.046-0.118,0.415-1.506,0.972-2.931c0.387-0.961,0.397-0.935-1.105-0.71c-0.755,0.134-1.52,0.26-1.674,0.264
		c-0.377,0.068-0.288,0.246,0.256,0.467c0.512,0.206,0.648,1.481,0.402,3.649c-0.05,0.342-0.071,0.733-0.076,0.866
		c0.041,0.226-0.087,0.326-2.244,1.855c-3.092,2.192-3.663,2.623-4.685,3.469c-1.697,1.464-3.45,4.558-3.374,6.017
		c0.006,0.37,3.816,0.098,6.255-0.485c0.598-0.124,1.338-0.246,1.681-0.272c1.145-0.092,3.912-0.963,5.022-1.581
		c2.27-1.25,3.364-3.446,3.377-6.707c-0.002-1.913-0.087-2.071-0.517-0.939c-0.409,1.051-1.78,4.351-2.449,5.899
		c-0.641,1.487-0.742,0.961-0.104-0.687c0.297-0.765,0.691-1.774,0.894-2.229c0.195-0.48,0.627-1.588,0.956-2.502
		c0.347-0.909,0.712-1.72,0.834-1.823c0.196-0.186-0.032-1.687-0.281-1.783c-0.035-0.013-0.241,0.556-0.481,1.268
		c-0.598,1.819-3.542,9.037-3.748,9.116c-0.356,0.137,0.117-1.23,1.93-5.482c0.397-0.935,0.699-1.701,0.69-1.723
		c-0.018-0.048,0.136-0.486,0.353-0.973c0.791-1.944,1.071-3.59,0.65-3.781c-0.065-0.026-0.268,0.43-0.481,0.991
		c-0.488,1.329-3.121,7.534-4.156,9.818c-0.552,1.211-0.85,1.728-0.954,1.663c-0.128-0.056,0.251-1.04,1.199-3.209
		c0.758-1.745,1.531-3.528,1.72-4.005c0.191-0.502,0.614-1.501,0.932-2.274c0.326-0.769,0.897-2.225,1.289-3.239
		c0.393-1.013,0.789-1.952,0.919-2.047C131.549,66.473,131.227,66.41,130.587,66.569L130.587,66.569z"/>
	<path fill-rule="evenodd" clip-rule="evenodd" fill="#FEFEFE" d="M126.742,57.806c-1.493,1.365-2.766,3.302-4.2,4.589
		c-0.239,0.217-1.649,1.854-1.618,2.039c0.024,0.116,0.094,0.23,0.175,0.31c0.375,0.36,1.607-0.99,1.861-1.259
		c0.56-0.603,4.132-4.124,4.06-4.6C126.967,58.497,126.915,58.164,126.742,57.806L126.742,57.806z"/>
	<path fill-rule="evenodd" clip-rule="evenodd" fill="#FEFEFE" d="M119.806,63.4c0.091,0.092,0.632,0.65,0.717,0.619
		c0.309-0.119,4.297-4.666,4.909-5.331c0.421-0.454,1.201-1.02,0.927-1.738c-0.291-0.761-0.617-0.096-0.814,0.257
		c-0.812,0.962-2.239,2.63-2.99,3.393C122.118,61.038,119.963,63.098,119.806,63.4L119.806,63.4z"/>
	<path fill-rule="evenodd" clip-rule="evenodd" fill="#FEFEFE" d="M125.673,55.468c-0.135,0.092-2.106,2.292-2.333,2.541
		c-1.04,1.14-2.104,2.296-3.244,3.344c-0.302,0.277-1.373,1.011-0.938,1.5c0.401,0.441,0.828-0.248,1.117-0.545
		c1.697-1.717,4.018-3.778,5.373-5.726C125.777,56.395,126.198,55.13,125.673,55.468L125.673,55.468z"/>
	<path fill-rule="evenodd" clip-rule="evenodd" fill="#FEFEFE" d="M124.996,53.836c-0.296,0.25-0.574,0.544-0.837,0.842
		c-1.382,1.574-2.875,3.06-4.217,4.679c-0.463,0.567-0.93,1.15-1.452,1.669c-0.346,0.349-0.565,0.615-0.047,0.941
		c0.086,0.052,0.43-0.195,0.488-0.239c1.324-0.937,3.042-2.56,3.999-3.865c0.631-0.853,1.797-1.532,2.419-2.619
		C125.55,54.884,125.389,54.029,124.996,53.836L124.996,53.836z"/>
	<path fill-rule="evenodd" clip-rule="evenodd" fill="#FEFEFE" d="M127.154,59.666c-0.07,0.027-0.638,0.649-1.302,1.363
		c-2.097,2.263-3.459,3.643-3.755,3.842c-0.44,0.274-0.413,0.346,0.05,0.632c0.409,0.211,0.409,0.211,2.002-1.314
		c1.524-1.442,3.044-3.031,3.249-3.401C127.547,60.544,127.344,59.594,127.154,59.666L127.154,59.666z"/>
	<path fill-rule="evenodd" clip-rule="evenodd" fill="#FEFEFE" d="M124.488,52.931c-0.402-0.415-0.332-0.441-1.144,0.516
		c-0.399,0.457-0.873,0.956-1.102,1.15c-0.462,0.4-0.865,0.822-3.349,3.551c-1.964,2.186-1.881,2.048-1.52,2.581
		c0.401,0.547,0.327,0.63,3.609-3.106c0.509-0.579,1.068-1.196,1.263-1.412c1.02-1.058,2.615-2.806,2.597-2.849
		C124.827,53.317,124.67,53.13,124.488,52.931L124.488,52.931z"/>
	<path fill-rule="evenodd" clip-rule="evenodd" fill="#FEFEFE" d="M127.63,60.971c-0.435,0.313-1.106,1.075-1.406,1.528
		c-0.665,1.038-1.817,2.135-2.746,2.951c-0.368,0.327-0.724,0.515-0.188,0.849c0.332,0.21,1.065-0.627,1.272-0.811
		c0.342-0.308,3.239-2.954,3.254-3.192C127.836,62.113,127.673,61.202,127.63,60.971L127.63,60.971z"/>
	<path fill-rule="evenodd" clip-rule="evenodd" fill="#FEFEFE" d="M127.016,63.654c-0.48,0.512-1.191,1.242-1.608,1.645
		c-1.533,1.42-1.511,1.388-1.245,1.577c0.258,0.199,0.342,0.143,1.419-0.706c1.612-1.29,2.492-2.217,2.465-2.641
		C127.987,62.61,127.943,62.626,127.016,63.654L127.016,63.654z"/>
	<path fill-rule="evenodd" clip-rule="evenodd" fill="#FEFEFE" d="M123.266,51.918c-0.25-0.151-2.243,1.83-3.73,3.697
		c-0.065,0.106-0.495,0.539-0.933,0.949c-2.226,2.07-2.364,2.315-1.894,2.931c0.196,0.278,0.036,0.425,2.837-2.592
		c0.798-0.876,1.84-1.948,2.302-2.422C124.153,52.193,124.064,52.394,123.266,51.918L123.266,51.918z"/>
	<path fill-rule="evenodd" clip-rule="evenodd" fill="#FEFEFE" d="M128.064,64.411c-0.164,0.149-0.314,0.313-0.463,0.475
		c-0.4,0.457-0.898,0.854-1.355,1.252C123.766,68.286,128.993,65.612,128.064,64.411L128.064,64.411z"/>
	<path fill-rule="evenodd" clip-rule="evenodd" fill="#FEFEFE" d="M127.828,66.121c-0.188,0.209-0.319,0.42-0.279,0.456
		c0.146,0.105,0.765-0.188,0.77-0.372C128.339,65.759,128.226,65.755,127.828,66.121L127.828,66.121z"/>
	<path fill-rule="evenodd" clip-rule="evenodd" fill="#FEFEFE" d="M121.625,51.086c-0.635,0.37-3.44,3.636-4.237,4.492
		c-0.334,0.366-1.572,1.477-1.475,2.045c0.215,1.254,0.955,0.107,1.432-0.408c1.538-1.62,3.104-3.204,4.611-4.847
		c0.083-0.088,0.676-0.723,0.57-0.84C122.364,51.342,121.865,51.13,121.625,51.086L121.625,51.086z"/>
	<path fill-rule="evenodd" clip-rule="evenodd" fill="#FEFEFE" d="M121.132,50.853c-0.291-0.152-0.961-0.323-1.273-0.137
		c-0.596,0.364-2.25,2.336-2.74,2.887c-0.543,0.622-1.831,1.681-1.64,2.597c0.189,0.916,0.387,0.416,0.89-0.124
		c0.852-0.908,1.637-1.91,2.523-2.78C119.131,53.062,121.183,51.064,121.132,50.853L121.132,50.853z"/>
	<path fill-rule="evenodd" clip-rule="evenodd" fill="#FEFEFE" d="M117.063,51.632c-1.151,1.353-1.807,2.035-1.903,1.992
		c-0.129-0.056-0.063,0.887,0.084,1.128c0.104,0.206,0.368-0.026,2.19-2.022c2.039-2.271,2.039-2.271,1.3-2.224
		C117.984,50.522,117.984,50.522,117.063,51.632L117.063,51.632z"/>
	<path fill-rule="evenodd" clip-rule="evenodd" fill="#FEFEFE" d="M116.248,50.835c-0.972,0.212-1.222,0.469-1.216,1.274
		c-0.009,0.331-0.018,0.713-0.021,0.849c-0.003,0.27,0.397-0.014,1.161-0.904C117.428,50.625,117.44,50.564,116.248,50.835
		L116.248,50.835z"/>
	<path fill-rule="evenodd" clip-rule="evenodd" fill="#FEFEFE" d="M112.382,43.589c-0.789-0.583-0.839-0.566-1.267,0.275
		c-0.461,0.898-0.667,0.574,1.825,2.931c0.651,0.642,1.259,1.029,1.186,0.76c-0.113-0.361-0.177-0.881-0.154-0.965
		C114.138,46.259,112.931,44.024,112.382,43.589L112.382,43.589z"/>
	<path fill-rule="evenodd" clip-rule="evenodd" fill="#FEFEFE" d="M109.891,54.22c0.823-1.139,1.608-2.574,2.184-3.86
		c0.212-0.46,0.428-0.987,0.723-1.403c0.033-0.048,0.53-0.748,0.1-0.584c-0.189,0.073-3.133,4.401-3.191,4.736
		C109.679,53.262,109.707,54.239,109.891,54.22L109.891,54.22z"/>
	<path fill-rule="evenodd" clip-rule="evenodd" fill="#FEFEFE" d="M111.447,48.527c-1.261,0.484-2.096,1.966-1.897,3.402
		c0.05,0.405,0.05,0.405,0.631-0.459c0.187-0.289,0.762-1.101,1.252-1.797C112.4,48.329,112.41,48.158,111.447,48.527
		L111.447,48.527z"/>
	<path fill-rule="evenodd" clip-rule="evenodd" fill="#FEFEFE" d="M110.733,53.6c-0.683,1.179-0.905,2.152-0.451,1.978
		c0.351-0.135,1.32-2.736,1.052-2.855C111.307,52.707,111.057,53.106,110.733,53.6L110.733,53.6z"/>
	<path fill-rule="evenodd" clip-rule="evenodd" fill="#FEFEFE" d="M110.855,55.549c-0.272,0.619-0.349,0.916-0.251,1.175
		c0.272,0.708,0.971-0.992,0.717-1.732C111.249,54.802,111.159,54.922,110.855,55.549L110.855,55.549z"/>
	<path fill-rule="evenodd" clip-rule="evenodd" fill="#FEFEFE" d="M111.225,57.208c-0.193,0.366,0.048,1.162,0.255,0.795
		C111.665,57.685,111.695,56.317,111.225,57.208L111.225,57.208z"/>
	<path fill-rule="evenodd" clip-rule="evenodd" fill="#FEFEFE" d="M117.176,75.36c-2.249,0.961-3.062,2.352-4.578,4.236
		c-0.305,0.389-1.712,1.913-1.562,2.46c0.237,0.868,0.917-0.528,1.095-0.798c0.652-0.998,2.352-3.597,3.328-4.245
		c0.362-0.24,0.781-0.92,1.064-1.028C116.646,75.937,117.242,75.492,117.176,75.36L117.176,75.36z"/>
	<path fill-rule="evenodd" clip-rule="evenodd" fill="#FEFEFE" d="M112.982,77.641c-1.424,0.85-2.759,2.705-2.479,3.434
		c0.118,0.308,0.15,0.261,1.478-1.404c0.607-0.742,1.299-1.608,1.532-1.909C114.103,77.05,113.992,77.038,112.982,77.641
		L112.982,77.641z"/>
	<path fill-rule="evenodd" clip-rule="evenodd" fill="#FEFEFE" d="M110.804,74.711c-0.083-0.019-1.117,1.714-0.537,1.492
		C110.824,75.988,111.29,74.811,110.804,74.711L110.804,74.711z"/>
	<path fill-rule="evenodd" clip-rule="evenodd" fill="#FEFEFE" d="M107.601,66.503c-0.189,0.072-1.55,2.295-2.217,3.631
		c-0.312,0.605-0.728,1.348-0.918,1.694c-0.287,0.518-0.297,0.684-0.17,0.953c0.173,0.317,0.173,0.317,0.988-1.131
		C107.462,67.823,108.163,66.287,107.601,66.503L107.601,66.503z"/>
	<path fill-rule="evenodd" clip-rule="evenodd" fill="#FEFEFE" d="M112.345,81.746c-0.78,1.187-0.857,1.484-0.378,1.462
		c0.156-0.004,1.122-2.126,1.049-2.315C112.998,80.844,112.715,81.225,112.345,81.746L112.345,81.746z"/>
	<path fill-rule="evenodd" clip-rule="evenodd" fill="#FEFEFE" d="M110.209,73.779c-0.139-0.219-0.231-0.102-0.85,1.164
		c-0.772,1.497-0.761,1.528-0.359,1.585c0.256,0.039,1.542-2.156,1.409-2.422C110.391,74.057,110.305,73.898,110.209,73.779
		L110.209,73.779z"/>
	<path fill-rule="evenodd" clip-rule="evenodd" fill="#FEFEFE" d="M109.332,72.496c-0.076-0.001-0.518,0.815-0.985,1.78
		c-0.836,1.75-0.836,1.75-0.488,1.883c0.359,0.16,0.359,0.16,1.125-1.486C109.724,73.097,109.846,72.349,109.332,72.496
		L109.332,72.496z"/>
	<path fill-rule="evenodd" clip-rule="evenodd" fill="#FEFEFE" d="M108.702,70.983c-0.179-0.174-2.183,4.077-2.075,4.358
		c0.27,0.704,0.671,0.277,1.565-1.679C109.1,71.747,109.152,71.461,108.702,70.983L108.702,70.983z"/>
	<path fill-rule="evenodd" clip-rule="evenodd" fill="#FEFEFE" d="M108.063,69.614c-0.086,0.035-1.962,3.715-2.246,4.393
		c-0.164,0.417-0.137,0.487,0.103,0.767c0.301,0.288,0.301,0.288,1.363-2.137C108.283,70.392,108.539,69.431,108.063,69.614
		L108.063,69.614z"/>
	<path fill-rule="evenodd" clip-rule="evenodd" fill="#FEFEFE" d="M107.278,68.892c-0.342,0.632-2.597,4.599-2.529,4.855
		c0.1,0.365,0.48,0.451,0.658,0.096c0.361-0.714,2.584-4.649,2.355-5.242C107.564,68.086,107.434,68.605,107.278,68.892
		L107.278,68.892z"/>
	<path fill-rule="evenodd" clip-rule="evenodd" fill="#FEFEFE" d="M106.11,67.045c-0.173,0.309-0.664,1.147-1.067,1.843
		c-1.378,2.39-1.388,2.364-1.214,2.671c0.162,0.291,0.201,0.25,0.961-1.196c0.442-0.821,1.14-2.027,1.515-2.665
		c0.602-1.034,0.66-1.167,0.417-1.174C106.476,66.527,106.358,66.627,106.11,67.045L106.11,67.045z"/>
	<path fill-rule="evenodd" clip-rule="evenodd" fill="#FEFEFE" d="M105.693,64.138c-0.426,0.043-0.784,0.675-0.897,1.036
		C104.502,66.144,106.891,64.008,105.693,64.138L105.693,64.138z"/>
	<path fill-rule="evenodd" clip-rule="evenodd" fill="#FEFEFE" d="M104.166,68.144c-0.952,1.607-0.998,1.761-0.855,2.135
		c0.189,0.492,0.189,0.492,0.913-0.84c0.316-0.519,0.811-1.41,1.146-1.943c0.613-0.992,0.613-0.992,0.194-1.018
		C105.174,66.437,105.149,66.446,104.166,68.144L104.166,68.144z"/>
	<path fill-rule="evenodd" clip-rule="evenodd" fill="#FEFEFE" d="M103.889,64.64c-0.414,0.456-0.373,0.708,0.1,0.612
		c0.407-0.081,0.84-0.973,0.524-1.039C104.366,64.185,104.162,64.349,103.889,64.64L103.889,64.64z"/>
	<path fill-rule="evenodd" clip-rule="evenodd" fill="#FEFEFE" d="M104.248,66.413c-0.462,0.178-1.638,2.042-1.46,2.503
		c0.237,0.615,0.435,0.095,0.585-0.225C103.541,68.355,105.14,66.072,104.248,66.413L104.248,66.413z"/>
	<path fill-rule="evenodd" clip-rule="evenodd" fill="#FEFEFE" d="M103.219,64.141c-0.218-0.002-0.673,0.217-0.571,0.486
		C102.857,65.168,103.928,64.16,103.219,64.141L103.219,64.141z"/>
	<path fill-rule="evenodd" clip-rule="evenodd" fill="#FEFEFE" d="M103.078,66.242c-0.55-0.106-1.16,1.041-0.817,1.525
		c0.202,0.301,0.202,0.301,0.706-0.483C103.525,66.474,103.521,66.345,103.078,66.242L103.078,66.242z"/>
	<path fill-rule="evenodd" clip-rule="evenodd" fill="#FEFEFE" d="M101.521,66.115c-0.395-0.03-0.412-0.035-0.187,0.288
		c0.294,0.412,0.406,0.505,0.727,0.069C102.407,66.005,101.899,66.14,101.521,66.115L101.521,66.115z"/>
	<path fill-rule="evenodd" clip-rule="evenodd" d="M125.93,74.854c-0.218,0.724-2.29,4.284-2.779,5.269
		c-0.347,0.713-0.678,1.425-1.061,2.122c-0.038,0.07-0.353,0.7-0.488,0.581c-0.291-0.247,0.592-1.624,0.719-1.845
		c0.735-1.251,1.396-2.527,2.037-3.825c0.403-0.803,0.854-1.835,1.456-2.515C126.05,74.369,125.972,74.728,125.93,74.854
		L125.93,74.854z"/>
	<path fill-rule="evenodd" clip-rule="evenodd" d="M119.961,82.836c0.163-0.536,3.516-5.936,3.64-5.983
		c0.338-0.129,0.01,0.602-0.025,0.66c-0.69,1.34-1.626,2.622-2.437,3.897C121.067,81.529,120.056,83.384,119.961,82.836
		L119.961,82.836z"/>
	<path fill-rule="evenodd" clip-rule="evenodd" d="M118.581,83.038c0.813-1.533,1.785-3.102,2.763-4.536
		c0.304-0.44,0.903-0.826,0.458,0.065c-0.34,0.691-2.281,3.701-2.755,4.267C119.026,82.857,118.665,83.309,118.581,83.038
		L118.581,83.038z"/>
	<path fill-rule="evenodd" clip-rule="evenodd" d="M119.911,79.542c-0.17,0.251-0.519,0.814-0.839,1.255
		c-0.291,0.438-0.741,1.157-0.985,1.574c-0.467,0.739-0.685,0.959-0.767,0.748c-0.098-0.259,2.457-4.338,2.688-4.234
		C120.202,78.971,120.176,79.116,119.911,79.542L119.911,79.542z"/>
	<path fill-rule="evenodd" clip-rule="evenodd" d="M118.399,80.173c-0.841,1.451-1.898,2.992-2.014,2.952
		c-0.131-0.051,0.35-0.967,1.972-3.638C118.849,78.678,118.877,79.318,118.399,80.173L118.399,80.173z"/>
	<polygon fill-rule="evenodd" clip-rule="evenodd" fill="#264796" points="97.691,61.82 111.444,61.82 111.444,65.457 
		97.691,65.457 97.691,61.82 	"/>
</g>
</svg>
