<?xml version="1.0" encoding="utf-8"?>
<!-- Generator: Adobe Illustrator 19.2.1, SVG Export Plug-In . SVG Version: 6.00 Build 0)  -->
<svg version="1.1" id="Layer_1" xmlns="http://www.w3.org/2000/svg" xmlns:xlink="http://www.w3.org/1999/xlink" x="0px" y="0px"
	 viewBox="0 0 32 32" enable-background="new 0 0 32 32" xml:space="preserve">
<path id="XMLID_6117_" fill="#333333" d="M26.082,31.995H5.918c-1.446,0-2.621-1.176-2.621-2.621V2.626
	c0-1.445,1.176-2.621,2.621-2.621h20.164c1.446,0,2.621,1.176,2.621,2.621v26.747C28.704,30.818,27.528,31.995,26.082,31.995z
	 M5.918,0.974c-0.911,0-1.652,0.741-1.652,1.651v26.747c0,0.911,0.741,1.652,1.652,1.652h20.164c0.911,0,1.652-0.741,1.652-1.652
	V2.625c0-0.911-0.741-1.651-1.652-1.651H5.918z"/>
<path id="XMLID_6116_" fill="#333333" d="M24.533,16.441H7.502c-0.268,0-0.485-0.217-0.485-0.485s0.217-0.485,0.485-0.485h17.031
	c0.268,0,0.485,0.217,0.485,0.485C25.018,16.224,24.801,16.441,24.533,16.441z"/>
<path id="XMLID_6115_" fill="#333333" d="M24.533,8.374h-8.482c-0.268,0-0.485-0.217-0.485-0.485c0-0.268,0.217-0.485,0.485-0.485
	h8.482c0.268,0,0.485,0.217,0.485,0.485C25.017,8.158,24.801,8.374,24.533,8.374z"/>
<path id="XMLID_6122_" fill="#333333" d="M24.533,24.509H7.502c-0.268,0-0.485-0.217-0.485-0.485s0.217-0.485,0.485-0.485h17.031
	c0.268,0,0.485,0.217,0.485,0.485S24.801,24.509,24.533,24.509z"/>
<g>
	<path fill="#333333" d="M9.236,8.943l-0.839,2.542h-1.08l2.747-8.083h1.259l2.758,8.083h-1.115l-0.864-2.542H9.236z M11.886,8.127
		l-0.792-2.327c-0.18-0.527-0.3-1.007-0.419-1.475h-0.024c-0.12,0.48-0.251,0.972-0.408,1.463L9.452,8.127H11.886z"/>
</g>
</svg>
