<?xml version="1.0" encoding="utf-8"?>
<!-- Generator: Adobe Illustrator 19.2.1, SVG Export Plug-In . SVG Version: 6.00 Build 0)  -->
<svg version="1.1" id="Layer_1" xmlns="http://www.w3.org/2000/svg" xmlns:xlink="http://www.w3.org/1999/xlink" x="0px" y="0px"
	 viewBox="0 0 32 32" enable-background="new 0 0 32 32" xml:space="preserve">
<g id="XMLID_15_">
</g>
<path fill="#333333" d="M7.656,0.235C7.364,0.527,7.363,1.003,7.655,1.297L22.333,16L7.655,30.703
	c-0.292,0.294-0.293,0.769,0.001,1.061c0.293,0.292,0.768,0.292,1.061-0.001l15.176-15.201c0.012-0.01,0.026-0.014,0.037-0.025
	c0.146-0.146,0.22-0.338,0.22-0.531c0-0.002-0.001-0.004-0.001-0.006c0-0.002,0.001-0.004,0.001-0.006
	c0-0.192-0.073-0.384-0.22-0.531c-0.011-0.011-0.026-0.015-0.037-0.025L8.716,0.236C8.424-0.057,7.949-0.057,7.656,0.235z"/>
</svg>
