<?xml version="1.0" encoding="utf-8"?>
<!-- Generator: Adobe Illustrator 19.2.1, SVG Export Plug-In . SVG Version: 6.00 Build 0)  -->
<svg version="1.1" id="Layer_1" xmlns="http://www.w3.org/2000/svg" xmlns:xlink="http://www.w3.org/1999/xlink" x="0px" y="0px"
	 viewBox="0 0 32 32" enable-background="new 0 0 32 32" xml:space="preserve">
<g id="XMLID_15_">
</g>
<g>
	<path id="XMLID_10_" fill="#333333" d="M21.919,15.519c-0.099,0-0.099,0-0.199-0.099c-0.199-0.099-0.199-0.298-0.199-0.596
		c0.795-1.192,0.993-2.781,0.397-3.973c-0.596-1.192-1.887-1.887-3.377-2.185c-0.298-0.099-0.397-0.298-0.397-0.497
		c0.099-0.199,0.298-0.397,0.596-0.298c1.887,0.397,3.178,1.092,3.873,2.582c0.795,1.49,0.695,3.178-0.199,4.966
		C22.316,15.519,22.118,15.618,21.919,15.519z"/>
	<path id="XMLID_9_" fill="#333333" d="M25.495,17.307c-0.099,0-0.099,0-0.199-0.099c-0.199-0.099-0.298-0.397-0.199-0.596
		c1.589-2.384,1.589-5.462,0.397-7.747s-3.277-3.476-6.158-4.072c-0.298-0.099-0.397-0.298-0.397-0.497
		c0.099-0.199,0.298-0.397,0.596-0.298c3.277,0.596,5.562,1.986,6.853,4.469c1.291,2.582,1.291,6.058-0.397,8.64
		C25.892,17.207,25.693,17.307,25.495,17.307z"/>
	<path id="XMLID_8_" fill="#333333" d="M29.566,19.194c-0.099,0-0.099,0-0.199-0.099c-0.199-0.099-0.298-0.397-0.199-0.596
		c2.284-3.476,2.284-8.144,0.497-11.62c-1.688-3.377-4.767-5.065-9.038-5.86c-0.298-0.099-0.397-0.298-0.397-0.497
		c0.099-0.199,0.298-0.397,0.596-0.298c4.668,0.894,7.747,2.483,9.634,6.058c1.887,3.675,2.086,9.038-0.397,12.712
		C29.964,19.094,29.765,19.194,29.566,19.194z"/>
	<path fill="#333333" d="M24.914,31.954c-2.264,0-7.986-0.522-12.623-3.917l-0.117-0.092c-2.253-1.776-4.356-4.021-6.251-6.674
		c-2.888-3.785-3.714-6.402-4.318-8.313C1.549,12.799-1.175,1.384,0.84,0.376C2.471-0.437,7.381,0.435,8.569,1.04
		C8.773,1.143,9.048,1.317,9.1,1.633c0.191,2.548,0.551,3.808,1.096,5.713l0.083,0.291c0.143,0.572-0.252,1.25-0.963,2.401
		c-0.517,0.837-1.16,1.88-1.204,2.535c-0.154,1.615,6.278,8.994,7.385,10.039c0.653,0.111,1.752-0.383,2.563-0.747
		c0.933-0.418,1.498-0.674,1.928-0.415c1.34,0.803,3.826,1.403,5.567,1.622l0.059,0.011c0.964,0.24,1.293,5.779,1.248,6.741
		c-0.038,0.832-0.182,1.953-0.994,2.078C25.765,31.926,25.428,31.954,24.914,31.954z M2.87,1.03c-0.679,0-1.252,0.068-1.586,0.234
		c-0.8,0.785,0.639,9.655,1.237,11.304c0.611,1.931,1.406,4.452,4.199,8.111c1.849,2.589,3.888,4.767,6.066,6.484l0.106,0.083
		c5.599,4.099,12.733,3.686,12.793,3.677c0.541-0.561-0.039-5.72-0.492-6.899c-1.391-0.197-4.046-0.754-5.645-1.68
		c-0.201,0.031-0.707,0.258-1.084,0.427c-1.049,0.471-2.353,1.058-3.339,0.774c-0.173-0.076-8.244-8.547-8.005-11.052
		c0.059-0.886,0.744-1.996,1.348-2.976c0.345-0.556,0.862-1.394,0.848-1.639l-0.076-0.26c-0.549-1.92-0.917-3.203-1.112-5.695
		C7.494,1.557,4.768,1.03,2.87,1.03z"/>
</g>
</svg>
