<?xml version="1.0" encoding="utf-8"?>
<!-- Generator: Adobe Illustrator 19.2.1, SVG Export Plug-In . SVG Version: 6.00 Build 0)  -->
<svg version="1.1" id="Layer_1" xmlns="http://www.w3.org/2000/svg" xmlns:xlink="http://www.w3.org/1999/xlink" x="0px" y="0px"
	 viewBox="0 0 32 32" enable-background="new 0 0 32 32" xml:space="preserve">
<g>
	<path id="XMLID_76_" fill="#333333" d="M16.031,32C7.226,32,0.063,24.837,0.063,16.032S7.226,0.063,16.031,0.063
		S32,7.226,32,16.032S24.836,32,16.031,32z M16.031,1.065c-8.252,0-14.967,6.714-14.967,14.967s6.715,14.966,14.967,14.966
		s14.967-6.714,14.967-14.967S24.283,1.065,16.031,1.065z"/>
	<g id="XMLID_5383_">
		<path fill="#333333" d="M16.031,9.912c-1.156,0-2.097-0.941-2.097-2.097s0.94-2.097,2.097-2.097c1.157,0,2.097,0.941,2.097,2.097
			S17.188,9.912,16.031,9.912z M16.031,6.718c-0.604,0-1.097,0.492-1.097,1.097s0.492,1.097,1.097,1.097
			c0.605,0,1.097-0.492,1.097-1.097S16.636,6.718,16.031,6.718z"/>
		<path fill="#333333" d="M16.125,26.344c-1.104,0-2.003-0.898-2.003-2.003V13.457c0-1.104,0.898-2.003,2.003-2.003
			s2.003,0.898,2.003,2.003v10.885C18.128,25.445,17.229,26.344,16.125,26.344z M16.125,12.454c-0.553,0-1.003,0.45-1.003,1.003
			v10.884c0,0.553,0.45,1.003,1.003,1.003s1.003-0.449,1.003-1.002V13.457C17.128,12.904,16.678,12.454,16.125,12.454z"/>
	</g>
</g>
</svg>
