<?xml version="1.0" encoding="utf-8"?>
<!-- Generator: Adobe Illustrator 19.2.1, SVG Export Plug-In . SVG Version: 6.00 Build 0)  -->
<svg version="1.1" id="Layer_1" xmlns="http://www.w3.org/2000/svg" xmlns:xlink="http://www.w3.org/1999/xlink" x="0px" y="0px"
	 viewBox="0 0 32 32" enable-background="new 0 0 32 32" xml:space="preserve">
<g>
	<path fill="#333333" d="M17.28,25.848c0.532-1.495,1.395-2.853,2.339-4.337c2.069-3.254,4.415-6.943,4.415-13.667h-0.001V7.844
		c0-4.3-3.498-7.799-7.798-7.799S8.436,3.544,8.436,7.844v0.001l0,0c0,6.724,2.346,10.412,4.416,13.667
		c0.942,1.481,1.803,2.836,2.335,4.326C10.586,25.91,3.08,26.608,3.08,28.892c0,2.423,8.446,3.063,12.912,3.063
		s12.912-0.639,12.912-3.062C28.904,26.687,21.904,25.96,17.28,25.848z M13.696,20.976c-1.997-3.139-4.26-6.698-4.26-13.131l0,0
		V7.844c0-3.749,3.05-6.799,6.799-6.799c3.748,0,6.798,3.05,6.798,6.799l0.001,0.003c0,6.432-2.263,9.989-4.26,13.129
		c-1.007,1.584-1.968,3.114-2.532,4.857c-0.005,0-0.01,0-0.014,0C15.664,24.09,14.703,22.559,13.696,20.976z M15.992,30.955
		c-7.707,0-11.912-1.361-11.912-2.062c0-0.685,4.025-1.998,11.401-2.057c0.143,0.595,0.235,1.216,0.254,1.882l0.5-0.014l0.5,0.014
		c0.018-0.664,0.11-1.283,0.253-1.877c7.068,0.111,10.916,1.381,10.916,2.051C27.904,29.594,23.7,30.955,15.992,30.955z"/>
	<path fill="#333333" d="M20.136,7.769c0-2.151-1.75-3.901-3.901-3.901s-3.901,1.75-3.901,3.901s1.75,3.901,3.901,3.901
		S20.136,9.919,20.136,7.769z M13.334,7.769c0-1.6,1.301-2.901,2.901-2.901c1.599,0,2.901,1.302,2.901,2.901
		s-1.302,2.901-2.901,2.901S13.334,9.368,13.334,7.769z"/>
</g>
<g id="XMLID_15_">
</g>
</svg>
