<?xml version="1.0" encoding="utf-8"?>
<!-- Generator: Adobe Illustrator 19.2.1, SVG Export Plug-In . SVG Version: 6.00 Build 0)  -->
<svg version="1.1" id="Layer_1" xmlns="http://www.w3.org/2000/svg" xmlns:xlink="http://www.w3.org/1999/xlink" x="0px" y="0px"
	 viewBox="0 0 32 32" enable-background="new 0 0 32 32" xml:space="preserve">
<path fill="#333333" d="M31.984,25.944c0.006-0.017,0.017-0.031,0.022-0.048c0.004-0.014,0-0.028,0.002-0.043
	c0.005-0.032,0.006-0.064,0.005-0.097c-0.002-0.031-0.005-0.06-0.013-0.09c-0.004-0.015-0.001-0.03-0.006-0.045L25.583,7.432
	c-0.004-0.01-0.012-0.017-0.016-0.027c-0.012-0.029-0.03-0.054-0.048-0.08c-0.017-0.025-0.033-0.05-0.055-0.071
	c-0.021-0.021-0.047-0.036-0.072-0.053c-0.026-0.017-0.051-0.034-0.08-0.046c-0.01-0.004-0.018-0.013-0.028-0.016L22.06,6.075
	c-0.009-0.004-0.017-0.007-0.026-0.01c-0.005-0.002-0.01-0.002-0.014-0.003l-0.003-0.001c-0.01-0.003-0.021-0.001-0.031-0.004
	c-0.039-0.01-0.079-0.018-0.122-0.017c-0.006,0-0.011-0.003-0.018-0.003l-0.001,0c0,0,0,0,0,0s0,0,0,0l-0.016,0.001
	c-0.001,0-0.001,0-0.002,0L15.41,6.326l-4.952-0.575c-0.003,0-0.006,0.001-0.008,0.001c-0.004,0-0.006-0.003-0.01-0.003
	c0,0,0,0-0.001,0c-0.034-0.003-0.068,0.007-0.102,0.012c-0.026,0.004-0.053,0.003-0.078,0.011c-0.004,0.001-0.008,0-0.013,0.002
	l-3.32,1.16c-0.008,0.003-0.014,0.01-0.022,0.013c-0.029,0.012-0.053,0.03-0.079,0.047C6.8,7.011,6.773,7.026,6.752,7.048
	C6.732,7.068,6.719,7.091,6.703,7.114C6.683,7.142,6.663,7.169,6.65,7.2C6.647,7.208,6.64,7.213,6.637,7.221l-6.593,18.35
	c-0.006,0.016-0.003,0.033-0.007,0.049c-0.008,0.031-0.012,0.061-0.014,0.093c-0.001,0.033,0.001,0.064,0.007,0.097
	c0.003,0.016-0.001,0.032,0.003,0.048c0.004,0.015,0.014,0.027,0.02,0.042c0.008,0.021,0.017,0.041,0.028,0.061
	c0.018,0.032,0.04,0.061,0.064,0.088c0.014,0.015,0.025,0.029,0.041,0.043c0.038,0.032,0.081,0.058,0.128,0.077
	c0.006,0.002,0.01,0.008,0.016,0.01c0.001,0,0.002,0,0.004,0.001c0.05,0.018,0.102,0.028,0.156,0.028c0,0,0,0,0,0c0,0,0,0,0,0
	c0,0,0,0,0,0c0.042,0,0.084-0.006,0.126-0.017L9.08,23.86l6.735,2.007c0.044,0.013,0.088,0.019,0.131,0.019
	c0.001,0,0.002,0.001,0.004,0.001c0.005,0,0.01,0,0.015,0c0.008,0,0.014-0.004,0.022-0.005c0.031-0.002,0.063-0.004,0.094-0.013
	l6.605-1.874l8.743,2.242c0.04,0.01,0.079,0.015,0.118,0.015c0.053,0,0.105-0.009,0.154-0.026c0.001,0,0.002,0,0.004-0.001
	c0.008-0.003,0.013-0.009,0.021-0.012c0.045-0.019,0.087-0.043,0.125-0.075c0.016-0.013,0.028-0.029,0.042-0.044
	c0.025-0.027,0.046-0.055,0.065-0.087C31.967,25.986,31.976,25.966,31.984,25.944z M7.454,7.755l2.42-0.846l-0.613,7.962
	l-4.909,1.515L7.454,7.755z M24.764,7.967l3.11,8.823l-5.104-1.313l-0.397-8.299L24.764,7.967z M21.819,15.424l-5.675,0.58
	l-0.261-8.749l5.534-0.248L21.819,15.424z M15.193,15.938l-4.977-1.084l0.623-8.104l4.094,0.476L15.193,15.938z M3.951,17.504
	l5.232-1.615l-0.547,7.109l-7.39,2.034L3.951,17.504z M10.142,15.809l5.08,1.107l0.234,7.855l-5.869-1.749L10.142,15.809z
	 M16.172,16.954l5.692-0.581l0.324,6.778l-5.782,1.641L16.172,16.954z M22.818,16.47l5.436,1.398l2.548,7.229l-7.666-1.966
	L22.818,16.47z"/>
</svg>
