<?xml version="1.0" encoding="utf-8"?>
<!-- Generator: Adobe Illustrator 19.2.1, SVG Export Plug-In . SVG Version: 6.00 Build 0)  -->
<svg version="1.1" id="Layer_1" xmlns="http://www.w3.org/2000/svg" xmlns:xlink="http://www.w3.org/1999/xlink" x="0px" y="0px"
	 viewBox="0 0 32 32" enable-background="new 0 0 32 32" xml:space="preserve">
<g id="XMLID_15_">
</g>
<path fill="#333333" d="M27.962,31.096c-0.001-0.016-0.003-0.042-0.014-0.069L16.61,0.42c-0.08-0.165-0.159-0.274-0.35-0.36
	C16.196,0.031,16.033-0.004,15.986,0c-0.044,0.004-0.145,0-0.258,0.049c-0.254,0.11-0.353,0.328-0.359,0.347L3.866,31.077
	c-0.012,0.029-0.014,0.055-0.016,0.08c-0.009,0.036-0.02,0.084-0.022,0.14c-0.001,0.044,0.003,0.084,0.01,0.125
	c0.006,0.043,0.015,0.084,0.031,0.127c0.017,0.048,0.041,0.089,0.064,0.13c0.006,0.016,0.016,0.039,0.036,0.064
	c0.016,0.02,0.036,0.034,0.032,0.027c0.042,0.047,0.09,0.081,0.156,0.124c0.024,0.016,0.048,0.033,0.064,0.039l0.043,0.024
	c0.068,0.025,0.142,0.04,0.221,0.043c0.005,0,0.011,0,0.016,0c0.114,0,0.23-0.034,0.347-0.103l11.007-8.7l11.039,8.604l0.033,0.02
	c0.111,0.077,0.237,0.119,0.365,0.122c0.085-0.003,0.172-0.012,0.28-0.056c0.023-0.01,0.045-0.023,0.085-0.05
	c0.047-0.029,0.107-0.07,0.144-0.114l0.046-0.04c0.018-0.024,0.028-0.047,0.038-0.071c0.019-0.031,0.043-0.073,0.059-0.119
	c0.016-0.042,0.024-0.083,0.032-0.13c0.006-0.041,0.009-0.08,0.008-0.122C27.983,31.198,27.976,31.152,27.962,31.096z M25.84,29.254
	l-9.571-7.46l-0.003-0.003c-0.019-0.014-0.125-0.068-0.17-0.085c-0.039-0.016-0.077-0.029-0.119-0.038
	c-0.039-0.008-0.158-0.022-0.258,0.001c-0.042,0.01-0.082,0.022-0.124,0.04s-0.081,0.036-0.115,0.059l-9.481,7.497l9.98-26.638
	L25.84,29.254z"/>
</svg>
