<?xml version="1.0" encoding="utf-8"?>
<!-- Generator: Adobe Illustrator 19.2.1, SVG Export Plug-In . SVG Version: 6.00 Build 0)  -->
<svg version="1.1" id="Layer_1" xmlns="http://www.w3.org/2000/svg" xmlns:xlink="http://www.w3.org/1999/xlink" x="0px" y="0px"
	 viewBox="0 0 32 32" style="enable-background:new 0 0 32 32;" xml:space="preserve">
<style type="text/css">
	.st0{fill:#264796;}
</style>
<g>
	<path class="st0" d="M26.1,0H5.9C4.5,0,3.3,1.2,3.3,2.6v26.7c0,1.4,1.2,2.6,2.6,2.6h20.2c1.4,0,2.6-1.2,2.6-2.6V2.6
		C28.7,1.2,27.5,0,26.1,0z M9.9,5.2h1.6l2.9,8.6h-1.6l-0.9-2.5H9.4l-0.8,2.5H7L9.9,5.2z M24.5,26.8h-17c-0.4,0-0.7-0.3-0.7-0.7
		s0.3-0.7,0.7-0.7h17c0.4,0,0.7,0.3,0.7,0.7S24.9,26.8,24.5,26.8z M24.5,18.7h-17c-0.4,0-0.7-0.3-0.7-0.7s0.3-0.7,0.7-0.7h17
		c0.4,0,0.7,0.3,0.7,0.7S24.9,18.7,24.5,18.7z M24.5,10.6h-8.5c-0.4,0-0.7-0.3-0.7-0.7s0.3-0.7,0.7-0.7h8.5c0.4,0,0.7,0.3,0.7,0.7
		C25.3,10.3,24.9,10.6,24.5,10.6z"/>
	<path class="st0" d="M10.9,7.9c-0.1-0.2-0.1-0.4-0.2-0.6c-0.1,0.2-0.1,0.4-0.2,0.6l-0.7,2h1.7L10.9,7.9z"/>
</g>
</svg>
