<?xml version="1.0" encoding="utf-8"?>
<!-- Generator: Adobe Illustrator 19.2.1, SVG Export Plug-In . SVG Version: 6.00 Build 0)  -->
<svg version="1.1" id="Layer_1" xmlns="http://www.w3.org/2000/svg" xmlns:xlink="http://www.w3.org/1999/xlink" x="0px" y="0px"
	 viewBox="0 0 32 32" style="enable-background:new 0 0 32 32;" xml:space="preserve">
<style type="text/css">
	.st0{fill:#264796;}
</style>
<g id="XMLID_15_">
</g>
<g>
	<path id="XMLID_10_" class="st0" d="M22,15.6c-0.1,0-0.1,0-0.2-0.1c-0.2-0.1-0.2-0.3-0.2-0.6c0.8-1.2,1-2.8,0.4-4S20.1,9,18.6,8.7
		c-0.3-0.1-0.4-0.3-0.4-0.5c0.1-0.2,0.3-0.4,0.6-0.3c1.9,0.4,3.2,1.1,3.9,2.6c0.8,1.5,0.7,3.2-0.2,5C22.4,15.6,22.2,15.7,22,15.6z"
		/>
	<path id="XMLID_9_" class="st0" d="M25.6,17.4c-0.1,0-0.1,0-0.2-0.1c-0.2-0.1-0.3-0.4-0.2-0.6c1.6-2.4,1.6-5.5,0.4-7.8
		s-3.3-3.5-6.2-4.1C19.1,4.7,19,4.5,19,4.3c0.1-0.2,0.3-0.4,0.6-0.3c3.3,0.6,5.6,2,6.9,4.5c1.3,2.6,1.3,6.1-0.4,8.7
		C26,17.3,25.8,17.4,25.6,17.4z"/>
	<path id="XMLID_8_" class="st0" d="M29.7,19.3c-0.1,0-0.1,0-0.2-0.1c-0.2-0.1-0.3-0.4-0.2-0.6c2.3-3.5,2.3-8.2,0.5-11.7
		C28.1,3.5,25,1.8,20.7,1c-0.3-0.1-0.4-0.3-0.4-0.5c0.1-0.2,0.3-0.4,0.6-0.3c4.7,0.9,7.8,2.5,9.7,6.1c1.9,3.7,2.1,9.1-0.4,12.8
		C30.1,19.2,29.9,19.3,29.7,19.3z"/>
	<path class="st0" d="M25,32.2c-2.3,0-8-0.5-12.7-3.9l-0.1-0.1c-2.3-1.8-4.4-4-6.3-6.7c-2.9-3.8-3.7-6.4-4.3-8.4
		C1.4,12.9-1.3,1.4,0.7,0.4c1.6-0.8,6.6,0.1,7.8,0.7C8.7,1.2,9,1.3,9.1,1.7c0.2,2.6,0.6,3.8,1.1,5.8l0.1,0.3c0.1,0.6-0.3,1.3-1,2.4
		C8.7,11,8.1,12,8.1,12.7c-0.2,1.6,6.3,9.1,7.4,10.1c0.7,0.1,1.8-0.4,2.6-0.8c0.9-0.4,1.5-0.7,1.9-0.4c1.3,0.8,3.9,1.4,5.6,1.6h0.1
		c1,0.2,1.3,5.8,1.3,6.8c0,0.8-0.2,2-1,2.1C25.8,32.2,25.5,32.2,25,32.2z"/>
</g>
</svg>
