<?xml version="1.0" encoding="utf-8"?>
<!-- Generator: Adobe Illustrator 19.2.1, SVG Export Plug-In . SVG Version: 6.00 Build 0)  -->
<svg version="1.1" id="Layer_1" xmlns="http://www.w3.org/2000/svg" xmlns:xlink="http://www.w3.org/1999/xlink" x="0px" y="0px"
	 viewBox="0 0 32 32" style="enable-background:new 0 0 32 32;" xml:space="preserve">
<style type="text/css">
	.st0{fill:#264796;}
</style>
<path id="XMLID_1036_" class="st0" d="M16,0C7.2,0,0,7.2,0,16s7.1,16,16,16s16-7.1,16-16S24.8,0,16,0z M17.6,24.6
	c0,0.9-0.7,1.6-1.6,1.6s-1.6-0.7-1.6-1.6V13.3c0-0.9,0.7-1.6,1.6-1.6c0.9,0,1.6,0.7,1.6,1.6V24.6z M16,9.2c-0.9,0-1.6-0.7-1.6-1.6
	S15.1,6,16,6c0.9,0,1.6,0.7,1.6,1.6S16.9,9.2,16,9.2z"/>
<g id="XMLID_6_">
</g>
</svg>
