<?xml version="1.0" encoding="utf-8"?>
<!-- Generator: Adobe Illustrator 19.2.1, SVG Export Plug-In . SVG Version: 6.00 Build 0)  -->
<svg version="1.1" id="Layer_1" xmlns="http://www.w3.org/2000/svg" xmlns:xlink="http://www.w3.org/1999/xlink" x="0px" y="0px"
	 viewBox="0 0 32 32" style="enable-background:new 0 0 32 32;" xml:space="preserve">
<style type="text/css">
	.st0{fill:#264796;}
</style>
<g id="XMLID_15_">
</g>
<path id="XMLID_937_" class="st0" d="M17.2,26.8c0.5-1.7,1.5-3.2,2.5-4.9c2.1-3.3,4.5-7.1,4.5-13.9c0-4.4-3.6-7.9-7.9-7.9
	s-8,3.5-8,7.8c0,6.8,2.4,10.6,4.5,13.9c1.1,1.7,2,3.2,2.5,4.9c-6.7,0.1-12,1.2-12,2.6C3.4,30.8,9,32,16,32s12.6-1.2,12.6-2.6
	S23.6,26.9,17.2,26.8z M12.8,7.9c0-1.9,1.6-3.5,3.5-3.5s3.5,1.6,3.5,3.5s-1.6,3.5-3.5,3.5S12.8,9.8,12.8,7.9z"/>
<g id="XMLID_6_">
</g>
</svg>
