<?xml version="1.0" encoding="utf-8"?>
<!-- Generator: Adobe Illustrator 19.2.1, SVG Export Plug-In . SVG Version: 6.00 Build 0)  -->
<svg version="1.1" id="Layer_1" xmlns="http://www.w3.org/2000/svg" xmlns:xlink="http://www.w3.org/1999/xlink" x="0px" y="0px"
	 viewBox="0 0 32 32" style="enable-background:new 0 0 32 32;" xml:space="preserve">
<style type="text/css">
	.st0{fill:#264796;}
</style>
<g>
	<g>
		<polygon class="st0" points="21.3,15.5 20.9,7.8 15.9,8 16.1,16 		"/>
		<polygon class="st0" points="9.7,15.9 4.9,17.4 2.5,24.3 9.2,22.4 		"/>
		<polygon class="st0" points="11.3,7.5 10.7,14.9 15.2,15.9 15,8 		"/>
		<polygon class="st0" points="10.6,15.8 10.1,22.4 15.5,24 15.3,16.8 		"/>
		<polygon class="st0" points="5.3,16.3 9.8,15 10.4,7.7 8.2,8.4 		"/>
		<polygon class="st0" points="21.7,22.6 21.4,16.3 16.1,16.9 16.4,24.1 		"/>
		<polygon class="st0" points="21.8,7.9 22.2,15.5 26.9,16.7 24,8.6 		"/>
		<polygon class="st0" points="22.2,16.4 22.5,22.5 29.6,24.3 27.2,17.7 		"/>
	</g>
	<path class="st0" d="M31,26.4c-0.1,0-0.2,0-0.2,0l-8.3-2.1L15.9,26l0,0c-0.1,0-0.1,0-0.2,0l-6.4-1.9l-8,2.2c-0.2,0-0.3,0-0.5,0
		l-0.2-0.1c-0.1,0-0.1-0.1-0.2-0.1L0.3,26c0-0.1-0.1-0.1-0.1-0.2l-0.1-0.1c0,0,0,0,0-0.1l0-0.1c0,0,0-0.1,0-0.1l0-0.3L6.5,7.3
		c0,0,0.1-0.1,0.1-0.1L6.7,7c0,0,0.1-0.1,0.1-0.1C6.9,6.9,7,6.8,7,6.8l3.6-1.2l0.1,0l4.7,0.5l6.2-0.3l0,0c0.1,0,0.1,0,0.2,0L22,6
		l3.2,1.1c0,0,0,0,0.1,0l0.1,0.1c0,0,0.1,0.1,0.1,0.1c0,0,0.1,0.1,0.1,0.1l0,0.1l6.2,17.9l-0.1,0.5c0,0.1-0.1,0.1-0.1,0.2l-0.1,0.1
		c-0.1,0.1-0.1,0.1-0.2,0.1l0,0l0,0C31.2,26.4,31.1,26.4,31,26.4z M1.1,25.4L1.1,25.4l8.2-2.3l6.6,2l6.5-1.8l8.5,2.2L24.7,7.9
		l-3.1-1l-0.1,0l0,0l-6.1,0.3l-4.8-0.6l-0.1,0L7.4,7.7L1.1,25.4z M31.9,25.3L31.9,25.3L31.9,25.3z"/>
</g>
</svg>
