<?xml version="1.0" encoding="utf-8"?>
<!-- Generator: Adobe Illustrator 19.2.1, SVG Export Plug-In . SVG Version: 6.00 Build 0)  -->
<svg version="1.1" id="Layer_1" xmlns="http://www.w3.org/2000/svg" xmlns:xlink="http://www.w3.org/1999/xlink" x="0px" y="0px"
	 viewBox="0 0 32 32" style="enable-background:new 0 0 32 32;" xml:space="preserve">
<style type="text/css">
	.st0{fill:#264796;}
</style>
<g id="XMLID_15_">
</g>
<path class="st0" d="M28,31.1C28,31.1,28,31.1,28,31.1L16.6,0.4c-0.1-0.2-0.2-0.3-0.4-0.4C16.2,0,16,0,16,0c0,0-0.1,0-0.3,0
	c-0.3,0.1-0.4,0.3-0.4,0.3L3.9,31.1c0,0,0,0.1,0,0.1c0,0,0,0.1,0,0.1c0,0,0,0.1,0,0.1c0,0,0,0.1,0,0.1c0,0,0,0.1,0.1,0.1
	c0,0,0,0,0,0.1c0,0,0,0,0,0c0,0,0.1,0.1,0.2,0.1c0,0,0,0,0.1,0l0,0c0.1,0,0.1,0,0.2,0c0,0,0,0,0,0c0.1,0,0.2,0,0.3-0.1l11-8.7
	l11,8.6l0,0c0.1,0.1,0.2,0.1,0.4,0.1c0.1,0,0.2,0,0.3-0.1c0,0,0,0,0.1,0c0,0,0.1-0.1,0.1-0.1l0,0c0,0,0,0,0-0.1c0,0,0-0.1,0.1-0.1
	c0,0,0-0.1,0-0.1c0,0,0-0.1,0-0.1C28,31.2,28,31.2,28,31.1z"/>
</svg>
